<svg width="20" height="20" viewBox="0 0 20 20" fill="none" xmlns="http://www.w3.org/2000/svg">
<path d="M2.53305 15.6006L2.98026 15.8242L3.11858 15.5476L2.93281 15.3003L2.53305 15.6006ZM4.39944 17.467L4.69976 17.0673L4.45248 16.8815L4.17584 17.0198L4.39944 17.467ZM0.666656 19.3334L0.219443 19.1098C0.123196 19.3023 0.160923 19.5348 0.313103 19.687C0.465283 19.8391 0.697769 19.8769 0.890263 19.7806L0.666656 19.3334ZM5.99999 6.00008L5.72264 5.58406C5.58354 5.67679 5.49999 5.8329 5.49999 6.00008H5.99999ZM14 14.0001V14.5001C14.1672 14.5001 14.3233 14.4165 14.416 14.2774L14 14.0001ZM8.339 6.7008L8.8322 6.6186L8.339 6.7008ZM8.52493 7.81636L8.03173 7.89856L8.52493 7.81636ZM7.94933 9.14496L8.22668 9.56099L7.94933 9.14496ZM13.2993 11.6611L13.3815 11.1679H13.3815L13.2993 11.6611ZM12.1837 11.4751L12.1015 11.9683V11.9683L12.1837 11.4751ZM10.8551 12.0507L10.4391 11.7734L10.8551 12.0507ZM0.166656 10.0001C0.166656 12.2135 0.898537 14.2573 2.13329 15.9009L2.93281 15.3003C1.82369 13.8239 1.16666 11.9895 1.16666 10.0001H0.166656ZM9.99999 0.166748C4.56919 0.166748 0.166656 4.56928 0.166656 10.0001H1.16666C1.16666 5.12157 5.12147 1.16675 9.99999 1.16675V0.166748ZM19.8333 10.0001C19.8333 4.56928 15.4308 0.166748 9.99999 0.166748V1.16675C14.8785 1.16675 18.8333 5.12157 18.8333 10.0001H19.8333ZM9.99999 19.8334C15.4308 19.8334 19.8333 15.4309 19.8333 10.0001H18.8333C18.8333 14.8786 14.8785 18.8334 9.99999 18.8334V19.8334ZM4.09913 17.8668C5.74274 19.1015 7.78661 19.8334 9.99999 19.8334V18.8334C8.01061 18.8334 6.17614 18.1764 4.69976 17.0673L4.09913 17.8668ZM0.890263 19.7806L4.62305 17.9142L4.17584 17.0198L0.44305 18.8862L0.890263 19.7806ZM2.08584 15.377L0.219443 19.1098L1.11387 19.557L2.98026 15.8242L2.08584 15.377ZM5.49999 6.00008V7.33341H6.49999V6.00008H5.49999ZM12.6667 14.5001H14V13.5001H12.6667V14.5001ZM5.49999 7.33341C5.49999 11.2915 8.70862 14.5001 12.6667 14.5001V13.5001C9.2609 13.5001 6.49999 10.7392 6.49999 7.33341H5.49999ZM6.27734 6.41611L6.56156 6.22663L6.00686 5.39458L5.72264 5.58406L6.27734 6.41611ZM7.8458 6.783L8.03173 7.89856L9.01812 7.73416L8.8322 6.6186L7.8458 6.783ZM7.67198 8.72894L6.38931 9.58406L6.94401 10.4161L8.22668 9.56099L7.67198 8.72894ZM8.03173 7.89856C8.08564 8.22203 7.94483 8.54704 7.67198 8.72894L8.22668 9.56099C8.82695 9.16081 9.13673 8.44578 9.01812 7.73416L8.03173 7.89856ZM6.56156 6.22663C7.06471 5.89119 7.74639 6.18652 7.8458 6.783L8.8322 6.6186C8.61348 5.30633 7.11379 4.65662 6.00686 5.39458L6.56156 6.22663ZM14.416 14.2774L14.6055 13.9932L13.7734 13.4385L13.584 13.7227L14.416 14.2774ZM13.3815 11.1679L12.2659 10.9819L12.1015 11.9683L13.2171 12.1543L13.3815 11.1679ZM10.4391 11.7734L9.58396 13.0561L10.416 13.6108L11.2711 12.3281L10.4391 11.7734ZM12.2659 10.9819C11.5543 10.8633 10.8393 11.1731 10.4391 11.7734L11.2711 12.3281C11.453 12.0552 11.778 11.9144 12.1015 11.9683L12.2659 10.9819ZM14.6055 13.9932C15.3435 12.8863 14.6937 11.3866 13.3815 11.1679L13.2171 12.1543C13.8136 12.2537 14.1089 12.9354 13.7734 13.4385L14.6055 13.9932Z" fill="black"/>
</svg>
