<svg width="13" height="7" viewBox="0 0 13 7" fill="none" xmlns="http://www.w3.org/2000/svg">
<mask id="path-1-outside-1_1_3453" maskUnits="userSpaceOnUse" x="0" y="-0.64917" width="13" height="8" fill="black">
<rect fill="white" y="-0.64917" width="13" height="8"/>
<path d="M11.5112 5.18077C11.272 4.89923 11.0016 4.64785 10.7402 4.40475C10.6483 4.3193 10.5533 4.23093 10.4618 4.1432C10.4617 4.14318 10.4617 4.14316 10.4617 4.14314C10.3386 4.02525 10.2783 3.94157 10.272 3.87976C10.2658 3.81901 10.3081 3.72888 10.4054 3.59565C10.5508 3.39526 10.7058 3.19453 10.8558 3.00043C10.9891 2.82788 11.1269 2.64945 11.259 2.47L11.2886 2.42971C11.5463 2.07951 11.8128 1.71739 11.9555 1.27611C11.9963 1.14959 12.0387 0.962361 11.9365 0.797998C11.8343 0.633593 11.6449 0.584866 11.5114 0.562549C11.4462 0.55158 11.3843 0.550673 11.3268 0.550673L9.65514 0.549217C9.36613 0.544492 9.16564 0.678987 9.05637 0.949072C8.96893 1.16478 8.86565 1.41476 8.746 1.6519C8.51709 2.1097 8.22621 2.63698 7.8046 3.0763L7.78587 3.09588C7.75716 3.12595 7.71026 3.17515 7.68618 3.18643C7.6405 3.15825 7.5878 2.99707 7.59021 2.91263C7.59027 2.91054 7.59029 2.90848 7.59029 2.90641L7.58881 1.01001C7.58881 1.00037 7.58812 0.990732 7.58681 0.981177C7.54932 0.710627 7.47623 0.439403 7.0401 0.354901C7.02611 0.35218 7.01189 0.35083 6.99767 0.35083H5.25882C4.93168 0.35083 4.75864 0.497917 4.61992 0.657387C4.57976 0.703877 4.47307 0.827318 4.52743 0.978224C4.58243 1.13092 4.74631 1.1614 4.80011 1.1714C4.9896 1.20671 5.08759 1.31186 5.11793 1.51289C5.17789 1.90348 5.18524 2.32133 5.14109 2.82722C5.12878 2.96305 5.10588 3.06628 5.06892 3.15213C5.0587 3.17591 5.04972 3.19063 5.04344 3.1993C5.03343 3.19533 5.01785 3.18774 4.99628 3.17325C4.86312 3.08379 4.76277 2.94472 4.66572 2.81026C4.2781 2.27294 3.95205 1.67949 3.66882 0.995732C3.55219 0.715542 3.33292 0.559047 3.05181 0.554997C2.51625 0.546243 2.02093 0.546454 1.53804 0.555672C1.31028 0.559553 1.15057 0.629944 1.06326 0.764923C0.975836 0.900155 0.979037 1.07258 1.0728 1.27748C1.74302 2.74076 2.35159 3.80524 3.04597 4.72902C3.53489 5.37939 4.02706 5.83084 4.59483 6.14978C5.19136 6.48485 5.86413 6.64907 6.64461 6.64905C6.73336 6.64905 6.82366 6.64692 6.91517 6.64263C7.3967 6.6211 7.59261 6.43304 7.61399 5.97259C7.62598 5.72923 7.65356 5.53209 7.74928 5.3608C7.77605 5.31286 7.80625 5.28071 7.83006 5.27483C7.85537 5.26862 7.90025 5.28383 7.95016 5.31566C8.0414 5.37384 8.11997 5.45273 8.18457 5.52198C8.25006 5.59237 8.31623 5.66508 8.38028 5.73539C8.51655 5.88509 8.65747 6.0399 8.80511 6.18756C9.13904 6.52177 9.524 6.67503 9.94976 6.64293L11.4796 6.64362C11.4796 6.64362 11.4796 6.64362 11.4796 6.64362C11.4845 6.64362 11.4894 6.64348 11.4942 6.64316C11.6707 6.63162 11.8232 6.53571 11.9128 6.37995C12.0207 6.19239 12.0191 5.95481 11.9084 5.74418C11.7929 5.52521 11.643 5.33674 11.5112 5.18077ZM11.5312 6.1684C11.5101 6.20508 11.4841 6.21177 11.4707 6.21337L9.94121 6.21268C9.94116 6.21268 9.94112 6.21268 9.94106 6.21268C9.93502 6.21268 9.92898 6.21291 9.92299 6.21342C9.62167 6.23805 9.36555 6.13406 9.11788 5.88621C8.97739 5.74568 8.83993 5.59471 8.70701 5.4487C8.64223 5.37755 8.57527 5.30396 8.50798 5.23165C8.42453 5.14217 8.32139 5.03933 8.18885 4.95483C7.99042 4.82837 7.82598 4.83219 7.723 4.85767C7.6211 4.88288 7.47625 4.95481 7.36507 5.15402C7.22104 5.41177 7.18926 5.68983 7.17633 5.95251C7.16885 6.11316 7.14118 6.1556 7.12962 6.16638C7.11448 6.18051 7.06386 6.20536 6.89497 6.21293C6.08337 6.25039 5.40227 6.10769 4.81246 5.77637C4.29937 5.48815 3.85009 5.07414 3.39859 4.47358C2.72344 3.57542 2.1294 2.53533 1.47251 1.10116C1.44871 1.0492 1.44136 1.01678 1.43923 0.999423C1.45599 0.994023 1.48873 0.986914 1.54614 0.985881C2.02413 0.976789 2.51427 0.976536 3.045 0.985227C3.11766 0.986282 3.2004 1.00769 3.26305 1.1582C3.55897 1.87262 3.90081 2.49436 4.30816 3.059C4.41631 3.20887 4.55093 3.39543 4.74878 3.52834C4.93 3.65018 5.07706 3.64436 5.16855 3.61803C5.26007 3.59169 5.38709 3.51849 5.47264 3.31962C5.52783 3.19143 5.56119 3.04709 5.57772 2.86471C5.62492 2.32359 5.61654 1.8737 5.5514 1.44935C5.50549 1.14533 5.3456 0.9257 5.09374 0.813544C5.13847 0.790679 5.18887 0.781144 5.25887 0.781144H6.97498C7.07153 0.802407 7.09065 0.827382 7.0972 0.835925C7.125 0.872227 7.1409 0.9581 7.15061 1.0252L7.15207 2.90411C7.14821 3.08423 7.23737 3.48371 7.54094 3.59325C7.54344 3.59415 7.54595 3.595 7.54846 3.5958C7.82484 3.68448 8.00765 3.49292 8.10579 3.39001L8.12328 3.37174C8.58511 2.89048 8.8961 2.32817 9.13906 1.84227C9.26569 1.59136 9.37294 1.33182 9.46363 1.1081C9.509 0.9959 9.5503 0.977422 9.64882 0.979468C9.65018 0.979511 9.65151 0.97951 9.65288 0.97951L11.3266 0.980966C11.3656 0.980966 11.4062 0.981409 11.4377 0.986704C11.5175 1.00003 11.5503 1.01628 11.5611 1.02301C11.5622 1.03547 11.562 1.07133 11.5379 1.14617C11.4165 1.52141 11.1818 1.84022 10.9335 2.17777L10.9038 2.21812C10.7747 2.39345 10.6385 2.56986 10.5067 2.74049C10.3548 2.9371 10.1978 3.14038 10.0489 3.34554C9.73066 3.78153 9.75863 4.07085 10.1558 4.45122C10.2497 4.54118 10.3459 4.63066 10.439 4.71719C10.7028 4.96257 10.952 5.19433 11.1745 5.45602C11.2909 5.59385 11.4229 5.75937 11.5191 5.94179C11.5693 6.03728 11.557 6.12356 11.5312 6.1684Z"/>
</mask>
<path d="M11.5112 5.18077C11.272 4.89923 11.0016 4.64785 10.7402 4.40475C10.6483 4.3193 10.5533 4.23093 10.4618 4.1432C10.4617 4.14318 10.4617 4.14316 10.4617 4.14314C10.3386 4.02525 10.2783 3.94157 10.272 3.87976C10.2658 3.81901 10.3081 3.72888 10.4054 3.59565C10.5508 3.39526 10.7058 3.19453 10.8558 3.00043C10.9891 2.82788 11.1269 2.64945 11.259 2.47L11.2886 2.42971C11.5463 2.07951 11.8128 1.71739 11.9555 1.27611C11.9963 1.14959 12.0387 0.962361 11.9365 0.797998C11.8343 0.633593 11.6449 0.584866 11.5114 0.562549C11.4462 0.55158 11.3843 0.550673 11.3268 0.550673L9.65514 0.549217C9.36613 0.544492 9.16564 0.678987 9.05637 0.949072C8.96893 1.16478 8.86565 1.41476 8.746 1.6519C8.51709 2.1097 8.22621 2.63698 7.8046 3.0763L7.78587 3.09588C7.75716 3.12595 7.71026 3.17515 7.68618 3.18643C7.6405 3.15825 7.5878 2.99707 7.59021 2.91263C7.59027 2.91054 7.59029 2.90848 7.59029 2.90641L7.58881 1.01001C7.58881 1.00037 7.58812 0.990732 7.58681 0.981177C7.54932 0.710627 7.47623 0.439403 7.0401 0.354901C7.02611 0.35218 7.01189 0.35083 6.99767 0.35083H5.25882C4.93168 0.35083 4.75864 0.497917 4.61992 0.657387C4.57976 0.703877 4.47307 0.827318 4.52743 0.978224C4.58243 1.13092 4.74631 1.1614 4.80011 1.1714C4.9896 1.20671 5.08759 1.31186 5.11793 1.51289C5.17789 1.90348 5.18524 2.32133 5.14109 2.82722C5.12878 2.96305 5.10588 3.06628 5.06892 3.15213C5.0587 3.17591 5.04972 3.19063 5.04344 3.1993C5.03343 3.19533 5.01785 3.18774 4.99628 3.17325C4.86312 3.08379 4.76277 2.94472 4.66572 2.81026C4.2781 2.27294 3.95205 1.67949 3.66882 0.995732C3.55219 0.715542 3.33292 0.559047 3.05181 0.554997C2.51625 0.546243 2.02093 0.546454 1.53804 0.555672C1.31028 0.559553 1.15057 0.629944 1.06326 0.764923C0.975836 0.900155 0.979037 1.07258 1.0728 1.27748C1.74302 2.74076 2.35159 3.80524 3.04597 4.72902C3.53489 5.37939 4.02706 5.83084 4.59483 6.14978C5.19136 6.48485 5.86413 6.64907 6.64461 6.64905C6.73336 6.64905 6.82366 6.64692 6.91517 6.64263C7.3967 6.6211 7.59261 6.43304 7.61399 5.97259C7.62598 5.72923 7.65356 5.53209 7.74928 5.3608C7.77605 5.31286 7.80625 5.28071 7.83006 5.27483C7.85537 5.26862 7.90025 5.28383 7.95016 5.31566C8.0414 5.37384 8.11997 5.45273 8.18457 5.52198C8.25006 5.59237 8.31623 5.66508 8.38028 5.73539C8.51655 5.88509 8.65747 6.0399 8.80511 6.18756C9.13904 6.52177 9.524 6.67503 9.94976 6.64293L11.4796 6.64362C11.4796 6.64362 11.4796 6.64362 11.4796 6.64362C11.4845 6.64362 11.4894 6.64348 11.4942 6.64316C11.6707 6.63162 11.8232 6.53571 11.9128 6.37995C12.0207 6.19239 12.0191 5.95481 11.9084 5.74418C11.7929 5.52521 11.643 5.33674 11.5112 5.18077ZM11.5312 6.1684C11.5101 6.20508 11.4841 6.21177 11.4707 6.21337L9.94121 6.21268C9.94116 6.21268 9.94112 6.21268 9.94106 6.21268C9.93502 6.21268 9.92898 6.21291 9.92299 6.21342C9.62167 6.23805 9.36555 6.13406 9.11788 5.88621C8.97739 5.74568 8.83993 5.59471 8.70701 5.4487C8.64223 5.37755 8.57527 5.30396 8.50798 5.23165C8.42453 5.14217 8.32139 5.03933 8.18885 4.95483C7.99042 4.82837 7.82598 4.83219 7.723 4.85767C7.6211 4.88288 7.47625 4.95481 7.36507 5.15402C7.22104 5.41177 7.18926 5.68983 7.17633 5.95251C7.16885 6.11316 7.14118 6.1556 7.12962 6.16638C7.11448 6.18051 7.06386 6.20536 6.89497 6.21293C6.08337 6.25039 5.40227 6.10769 4.81246 5.77637C4.29937 5.48815 3.85009 5.07414 3.39859 4.47358C2.72344 3.57542 2.1294 2.53533 1.47251 1.10116C1.44871 1.0492 1.44136 1.01678 1.43923 0.999423C1.45599 0.994023 1.48873 0.986914 1.54614 0.985881C2.02413 0.976789 2.51427 0.976536 3.045 0.985227C3.11766 0.986282 3.2004 1.00769 3.26305 1.1582C3.55897 1.87262 3.90081 2.49436 4.30816 3.059C4.41631 3.20887 4.55093 3.39543 4.74878 3.52834C4.93 3.65018 5.07706 3.64436 5.16855 3.61803C5.26007 3.59169 5.38709 3.51849 5.47264 3.31962C5.52783 3.19143 5.56119 3.04709 5.57772 2.86471C5.62492 2.32359 5.61654 1.8737 5.5514 1.44935C5.50549 1.14533 5.3456 0.9257 5.09374 0.813544C5.13847 0.790679 5.18887 0.781144 5.25887 0.781144H6.97498C7.07153 0.802407 7.09065 0.827382 7.0972 0.835925C7.125 0.872227 7.1409 0.9581 7.15061 1.0252L7.15207 2.90411C7.14821 3.08423 7.23737 3.48371 7.54094 3.59325C7.54344 3.59415 7.54595 3.595 7.54846 3.5958C7.82484 3.68448 8.00765 3.49292 8.10579 3.39001L8.12328 3.37174C8.58511 2.89048 8.8961 2.32817 9.13906 1.84227C9.26569 1.59136 9.37294 1.33182 9.46363 1.1081C9.509 0.9959 9.5503 0.977422 9.64882 0.979468C9.65018 0.979511 9.65151 0.97951 9.65288 0.97951L11.3266 0.980966C11.3656 0.980966 11.4062 0.981409 11.4377 0.986704C11.5175 1.00003 11.5503 1.01628 11.5611 1.02301C11.5622 1.03547 11.562 1.07133 11.5379 1.14617C11.4165 1.52141 11.1818 1.84022 10.9335 2.17777L10.9038 2.21812C10.7747 2.39345 10.6385 2.56986 10.5067 2.74049C10.3548 2.9371 10.1978 3.14038 10.0489 3.34554C9.73066 3.78153 9.75863 4.07085 10.1558 4.45122C10.2497 4.54118 10.3459 4.63066 10.439 4.71719C10.7028 4.96257 10.952 5.19433 11.1745 5.45602C11.2909 5.59385 11.4229 5.75937 11.5191 5.94179C11.5693 6.03728 11.557 6.12356 11.5312 6.1684Z" fill="black"/>
<path d="M11.5112 5.18077C11.272 4.89923 11.0016 4.64785 10.7402 4.40475C10.6483 4.3193 10.5533 4.23093 10.4618 4.1432C10.4617 4.14318 10.4617 4.14316 10.4617 4.14314C10.3386 4.02525 10.2783 3.94157 10.272 3.87976C10.2658 3.81901 10.3081 3.72888 10.4054 3.59565C10.5508 3.39526 10.7058 3.19453 10.8558 3.00043C10.9891 2.82788 11.1269 2.64945 11.259 2.47L11.2886 2.42971C11.5463 2.07951 11.8128 1.71739 11.9555 1.27611C11.9963 1.14959 12.0387 0.962361 11.9365 0.797998C11.8343 0.633593 11.6449 0.584866 11.5114 0.562549C11.4462 0.55158 11.3843 0.550673 11.3268 0.550673L9.65514 0.549217C9.36613 0.544492 9.16564 0.678987 9.05637 0.949072C8.96893 1.16478 8.86565 1.41476 8.746 1.6519C8.51709 2.1097 8.22621 2.63698 7.8046 3.0763L7.78587 3.09588C7.75716 3.12595 7.71026 3.17515 7.68618 3.18643C7.6405 3.15825 7.5878 2.99707 7.59021 2.91263C7.59027 2.91054 7.59029 2.90848 7.59029 2.90641L7.58881 1.01001C7.58881 1.00037 7.58812 0.990732 7.58681 0.981177C7.54932 0.710627 7.47623 0.439403 7.0401 0.354901C7.02611 0.35218 7.01189 0.35083 6.99767 0.35083H5.25882C4.93168 0.35083 4.75864 0.497917 4.61992 0.657387C4.57976 0.703877 4.47307 0.827318 4.52743 0.978224C4.58243 1.13092 4.74631 1.1614 4.80011 1.1714C4.9896 1.20671 5.08759 1.31186 5.11793 1.51289C5.17789 1.90348 5.18524 2.32133 5.14109 2.82722C5.12878 2.96305 5.10588 3.06628 5.06892 3.15213C5.0587 3.17591 5.04972 3.19063 5.04344 3.1993C5.03343 3.19533 5.01785 3.18774 4.99628 3.17325C4.86312 3.08379 4.76277 2.94472 4.66572 2.81026C4.2781 2.27294 3.95205 1.67949 3.66882 0.995732C3.55219 0.715542 3.33292 0.559047 3.05181 0.554997C2.51625 0.546243 2.02093 0.546454 1.53804 0.555672C1.31028 0.559553 1.15057 0.629944 1.06326 0.764923C0.975836 0.900155 0.979037 1.07258 1.0728 1.27748C1.74302 2.74076 2.35159 3.80524 3.04597 4.72902C3.53489 5.37939 4.02706 5.83084 4.59483 6.14978C5.19136 6.48485 5.86413 6.64907 6.64461 6.64905C6.73336 6.64905 6.82366 6.64692 6.91517 6.64263C7.3967 6.6211 7.59261 6.43304 7.61399 5.97259C7.62598 5.72923 7.65356 5.53209 7.74928 5.3608C7.77605 5.31286 7.80625 5.28071 7.83006 5.27483C7.85537 5.26862 7.90025 5.28383 7.95016 5.31566C8.0414 5.37384 8.11997 5.45273 8.18457 5.52198C8.25006 5.59237 8.31623 5.66508 8.38028 5.73539C8.51655 5.88509 8.65747 6.0399 8.80511 6.18756C9.13904 6.52177 9.524 6.67503 9.94976 6.64293L11.4796 6.64362C11.4796 6.64362 11.4796 6.64362 11.4796 6.64362C11.4845 6.64362 11.4894 6.64348 11.4942 6.64316C11.6707 6.63162 11.8232 6.53571 11.9128 6.37995C12.0207 6.19239 12.0191 5.95481 11.9084 5.74418C11.7929 5.52521 11.643 5.33674 11.5112 5.18077ZM11.5312 6.1684C11.5101 6.20508 11.4841 6.21177 11.4707 6.21337L9.94121 6.21268C9.94116 6.21268 9.94112 6.21268 9.94106 6.21268C9.93502 6.21268 9.92898 6.21291 9.92299 6.21342C9.62167 6.23805 9.36555 6.13406 9.11788 5.88621C8.97739 5.74568 8.83993 5.59471 8.70701 5.4487C8.64223 5.37755 8.57527 5.30396 8.50798 5.23165C8.42453 5.14217 8.32139 5.03933 8.18885 4.95483C7.99042 4.82837 7.82598 4.83219 7.723 4.85767C7.6211 4.88288 7.47625 4.95481 7.36507 5.15402C7.22104 5.41177 7.18926 5.68983 7.17633 5.95251C7.16885 6.11316 7.14118 6.1556 7.12962 6.16638C7.11448 6.18051 7.06386 6.20536 6.89497 6.21293C6.08337 6.25039 5.40227 6.10769 4.81246 5.77637C4.29937 5.48815 3.85009 5.07414 3.39859 4.47358C2.72344 3.57542 2.1294 2.53533 1.47251 1.10116C1.44871 1.0492 1.44136 1.01678 1.43923 0.999423C1.45599 0.994023 1.48873 0.986914 1.54614 0.985881C2.02413 0.976789 2.51427 0.976536 3.045 0.985227C3.11766 0.986282 3.2004 1.00769 3.26305 1.1582C3.55897 1.87262 3.90081 2.49436 4.30816 3.059C4.41631 3.20887 4.55093 3.39543 4.74878 3.52834C4.93 3.65018 5.07706 3.64436 5.16855 3.61803C5.26007 3.59169 5.38709 3.51849 5.47264 3.31962C5.52783 3.19143 5.56119 3.04709 5.57772 2.86471C5.62492 2.32359 5.61654 1.8737 5.5514 1.44935C5.50549 1.14533 5.3456 0.9257 5.09374 0.813544C5.13847 0.790679 5.18887 0.781144 5.25887 0.781144H6.97498C7.07153 0.802407 7.09065 0.827382 7.0972 0.835925C7.125 0.872227 7.1409 0.9581 7.15061 1.0252L7.15207 2.90411C7.14821 3.08423 7.23737 3.48371 7.54094 3.59325C7.54344 3.59415 7.54595 3.595 7.54846 3.5958C7.82484 3.68448 8.00765 3.49292 8.10579 3.39001L8.12328 3.37174C8.58511 2.89048 8.8961 2.32817 9.13906 1.84227C9.26569 1.59136 9.37294 1.33182 9.46363 1.1081C9.509 0.9959 9.5503 0.977422 9.64882 0.979468C9.65018 0.979511 9.65151 0.97951 9.65288 0.97951L11.3266 0.980966C11.3656 0.980966 11.4062 0.981409 11.4377 0.986704C11.5175 1.00003 11.5503 1.01628 11.5611 1.02301C11.5622 1.03547 11.562 1.07133 11.5379 1.14617C11.4165 1.52141 11.1818 1.84022 10.9335 2.17777L10.9038 2.21812C10.7747 2.39345 10.6385 2.56986 10.5067 2.74049C10.3548 2.9371 10.1978 3.14038 10.0489 3.34554C9.73066 3.78153 9.75863 4.07085 10.1558 4.45122C10.2497 4.54118 10.3459 4.63066 10.439 4.71719C10.7028 4.96257 10.952 5.19433 11.1745 5.45602C11.2909 5.59385 11.4229 5.75937 11.5191 5.94179C11.5693 6.03728 11.557 6.12356 11.5312 6.1684Z" stroke="black" stroke-width="0.4" mask="url(#path-1-outside-1_1_3453)"/>
</svg>
