<svg width="20" height="20" viewBox="0 0 20 20" fill="none" xmlns="http://www.w3.org/2000/svg">
<path d="M13.7079 0.666504H16.6668C18.1396 0.666504 19.3335 1.86041 19.3335 3.33317V5.99984C19.3335 13.3636 13.364 19.3332 6.00016 19.3332H3.3335C1.86074 19.3332 0.666831 18.1393 0.666831 16.6665V14.8239C0.666831 14.3189 0.952166 13.8572 1.40388 13.6313L4.62512 12.0207C5.35086 11.6578 6.22973 12.0219 6.48631 12.7916L6.88334 13.9827C7.14051 14.7542 7.93193 15.2135 8.72938 15.054C11.9211 14.4156 14.416 11.9208 15.0543 8.72906C15.2138 7.9316 14.7545 7.14018 13.983 6.88301L12.5048 6.39029C11.8439 6.16997 11.464 5.47791 11.633 4.80199L12.4143 1.67646C12.5627 1.0829 13.096 0.666504 13.7079 0.666504Z" stroke="black"/>
</svg>
